{"title":"Formula 1 2007 Round 3 Bahrain Race","uid":9216821,"size":1355357195,"categoryP":"video","categoryS":"tv_shows","magnet":"?xt=urn:btih:e24ad82d46035ba3b2747c9be8ffee68d5cc329f&amp;dn=Formula+1+2007+Round+3+Bahrain+Race&amp;tr=udp%3A%2F%2Ftracker.openbittorrent.com%3A80&amp;tr=udp%3A%2F%2Fopen.demonii.com%3A1337&amp;tr=udp%3A%2F%2Ftracker.coppersurfer.tk%3A6969&amp;tr=udp%3A%2F%2Fexodus.desync.com%3A6969","seeders":0,"leechers":1,"uploader":"totocon","files":1,"time":1384873293,"description":"ITV broadcast\n\nFormat                                   : Matroska\nFormat version                           : Version 4 / Version 2\nFile size                                : 1.26 GiB\nDuration                                 : 2h 39mn\nOverall bit rate                         : 1 134 Kbps\nEncoded date                             : UTC 2013-11-19 13:54:18\nWriting application                      : mkvmerge v6.3.0 ('You can't stop me!') built on Jun 27 2013 22:06:07\nWriting library                          : libebml v1.3.0 + libmatroska v1.4.0\n\nVideo\nID                                       : 1\nFormat                                   : MPEG-4 Visual\nFormat profile                           : Advanced Simple@L5\nFormat settings, BVOP                    : Yes\nFormat settings, QPel                    : No\nFormat settings, GMC                     : No warppoints\nFormat settings, Matrix                  : Default (H.263)\nCodec ID                                 : V_MS/VFW/FOURCC / DX50\nCodec ID/Hint                            : DivX 5\nDuration                                 : 2h 39mn\nBit rate                                 : 1 000 Kbps\nWidth                                    : 640 pixels\nHeight                                   : 352 pixels\nDisplay aspect ratio                     : 16:9\nFrame rate mode                          : Constant\nFrame rate                               : 25.000 fps\nColor space                              : YUV\nChroma subsampling                       : 4:2:0\nBit depth                                : 8 bits\nScan type                                : Progressive\nCompression mode                         : Lossy\nBits/(Pixel*Frame)                       : 0.177\nStream size                              : 1.11 GiB (88%)\nWriting library                          : XviD 1.1.2 (UTC 2006-11-01)\nDefault                                  : Yes\nForced                                   : No\n\nAudio\nID                                       : 2\nFormat                                   : MPEG Audio\nFormat version                           : Version 1\nFormat profile                           : Layer 3\nMode                                     : Joint stereo\nMode extension                           : MS Stereo\nCodec ID                                 : A_MPEG/L3\nCodec ID/Hint                            : MP3\nDuration                                 : 2h 39mn\nBit rate mode                            : Constant\nBit rate                                 : 112 Kbps\nChannel(s)                               : 2 channels\nSampling rate                            : 48.0 KHz\nCompression mode                         : Lossy\nStream size                              : 128 MiB (10%)\nDefault                                  : Yes","torrent":{"xt":"urn:btih:e24ad82d46035ba3b2747c9be8ffee68d5cc329f","amp;dn":"Formula+1+2007+Round+3+Bahrain+Race","amp;tr":["udp%3A%2F%2Ftracker.openbittorrent.com%3A80","udp%3A%2F%2Fopen.demonii.com%3A1337","udp%3A%2F%2Ftracker.coppersurfer.tk%3A6969","udp%3A%2F%2Fexodus.desync.com%3A6969"],"infoHash":"e24ad82d46035ba3b2747c9be8ffee68d5cc329f","infoHashBuffer":{"type":"Buffer","data":[226,74,216,45,70,3,91,163,178,116,124,155,232,255,238,104,213,204,50,159]},"announce":[],"urlList":[]}}